<?xml version="1.0" standalone="no"?>
<!DOCTYPE svg PUBLIC "-//W3C//DTD SVG 20010904//EN"
 "http://www.w3.org/TR/2001/REC-SVG-20010904/DTD/svg10.dtd">
<svg version="1.0" xmlns="http://www.w3.org/2000/svg"
 width="836.000000pt" height="836.000000pt" viewBox="0 0 836.000000 836.000000"
 preserveAspectRatio="xMidYMid meet">
<metadata>
Created by potrace 1.11, written by Peter Selinger 2001-2013
</metadata>
<g transform="translate(0.000000,836.000000) scale(0.100000,-0.100000)"
fill="#000000" stroke="none">
<path d="M8040 8027 c-41 -24 -167 -97 -280 -162 -113 -65 -232 -134 -265
-153 -85 -49 -225 -131 -259 -150 -16 -9 -101 -59 -188 -109 -87 -51 -163 -93
-168 -93 -6 0 -10 -4 -10 -10 0 -5 -4 -10 -10 -10 -5 0 -47 -22 -94 -50 -47
-27 -87 -50 -91 -50 -3 0 -11 -5 -18 -10 -10 -9 -573 -336 -707 -412 -19 -10
-51 -29 -70 -40 -114 -67 -352 -204 -390 -226 -54 -30 -109 -63 -135 -80 -11
-7 -33 -19 -50 -27 -16 -9 -37 -20 -45 -25 -46 -30 -343 -200 -350 -200 -5 0
-10 -3 -12 -7 -1 -5 -19 -17 -38 -27 -19 -11 -75 -42 -125 -71 -49 -28 -171
-98 -270 -155 -99 -57 -182 -107 -183 -112 -2 -4 -7 -6 -12 -3 -4 3 -13 -2
-20 -10 -7 -8 -16 -15 -21 -15 -5 0 -54 -27 -109 -60 -55 -33 -103 -60 -105
-60 -3 0 -28 -15 -57 -33 -29 -19 -78 -47 -108 -64 -30 -17 -80 -45 -110 -63
-30 -18 -70 -41 -87 -51 -18 -11 -48 -27 -65 -38 -18 -10 -67 -38 -108 -61
-41 -24 -84 -48 -95 -55 -11 -7 -24 -12 -29 -13 -5 0 -12 -4 -15 -9 -3 -4 -16
-14 -28 -20 -13 -7 -33 -19 -45 -25 -13 -7 -25 -15 -28 -18 -3 -3 -21 -14 -40
-24 -19 -11 -76 -43 -127 -72 -56 -32 -95 -48 -100 -43 -12 12 -90 56 -126 72
-15 6 -27 15 -27 19 0 4 -5 8 -11 8 -6 0 -23 8 -37 19 -15 10 -53 33 -84 49
-83 45 -102 56 -108 62 -3 3 -26 17 -52 30 -27 14 -48 28 -48 32 0 5 -5 8 -12
8 -9 0 -41 17 -190 105 -9 6 -56 33 -105 61 -48 28 -105 60 -126 72 -20 12
-53 31 -72 42 -62 36 -98 57 -190 110 -215 126 -274 160 -320 185 -52 29 -196
112 -215 125 -8 6 -22 13 -30 17 -8 4 -84 48 -170 98 -86 50 -162 94 -170 98
-8 4 -28 16 -45 26 -124 77 -473 272 -498 279 -65 18 -129 -11 -164 -74 l-23
-39 0 -3054 0 -3054 21 -37 c41 -73 131 -99 205 -59 60 33 199 114 204 119 3
3 25 15 50 28 25 13 65 36 90 52 25 16 51 29 58 29 6 1 12 5 12 10 0 5 12 14
28 20 15 6 45 22 67 35 22 14 51 31 65 39 14 7 112 64 217 125 106 62 197 112
202 112 5 0 11 3 13 8 2 6 165 102 271 161 16 9 36 21 45 26 9 6 79 46 155 90
76 44 146 85 155 90 9 6 49 28 87 50 39 22 78 44 87 50 34 20 293 169 313 179
11 6 22 14 25 17 3 3 37 23 75 44 39 22 78 44 87 50 9 5 29 17 45 26 15 8 81
46 145 83 l117 68 61 -36 c34 -20 65 -36 71 -36 5 0 9 -4 9 -10 0 -5 4 -10 9
-10 4 0 41 -19 80 -42 40 -24 92 -54 117 -68 24 -14 95 -54 157 -90 61 -36
118 -66 125 -68 6 -2 12 -8 12 -13 0 -5 4 -9 9 -9 5 0 44 -20 85 -45 42 -25
81 -45 86 -45 6 0 10 -4 10 -10 0 -5 5 -10 10 -10 6 0 27 -11 48 -23 39 -25
99 -59 192 -110 30 -16 62 -35 70 -42 18 -14 48 -27 75 -32 13 -2 120 55 280
148 143 83 276 159 295 170 19 11 53 31 75 44 22 13 56 32 75 43 40 21 327
187 350 202 52 32 121 70 130 70 5 0 10 5 10 10 0 6 6 10 14 10 7 0 19 7 26
15 7 8 16 12 21 9 5 -3 9 0 9 5 0 17 26 13 67 -10 113 -63 447 -257 500 -290
34 -22 65 -39 67 -39 2 0 50 -27 106 -60 56 -33 103 -60 105 -60 2 0 33 -18
69 -40 36 -22 70 -40 76 -40 5 0 10 -4 10 -10 0 -5 4 -10 10 -10 8 0 138 -72
180 -100 8 -6 22 -13 30 -17 8 -4 17 -9 20 -13 8 -9 76 -40 90 -40 11 0 161
82 275 150 28 17 61 35 75 41 13 6 27 13 30 17 6 8 159 97 285 166 11 6 22 13
25 16 5 5 23 15 88 51 20 11 51 29 67 40 17 10 37 22 45 26 8 4 65 36 125 71
61 36 130 76 155 90 25 14 59 33 75 43 17 10 47 28 67 39 20 11 44 30 52 42
14 20 16 320 16 3064 0 2882 -1 3043 -17 3063 -33 39 -70 36 -153 -12z m17
-1542 c0 -756 -2 -1375 -4 -1375 -3 0 -35 17 -71 39 -37 21 -83 48 -102 59
-19 11 -91 52 -160 92 -128 74 -165 96 -222 129 -18 10 -159 92 -313 181 -154
89 -300 174 -325 188 -25 14 -126 72 -225 130 -99 58 -200 116 -225 130 -25
13 -49 28 -55 32 -5 4 -30 19 -55 32 -80 44 -123 69 -245 140 -66 39 -163 95
-215 126 -156 90 -160 93 -154 103 3 5 9 9 14 9 4 0 38 18 74 40 65 40 409
239 496 288 25 13 50 28 55 32 6 4 27 17 48 29 74 42 254 145 392 226 50 29
106 62 125 73 19 11 105 60 190 109 85 49 263 151 395 227 132 76 251 146 265
155 14 8 34 21 45 27 39 21 111 61 160 90 52 31 109 63 111 64 1 0 1 -619 1
-1375z m-2609 -1510 c0 -756 -2 -1375 -5 -1375 -10 0 -138 74 -141 82 -2 4 -7
8 -11 8 -8 0 -32 13 -334 188 -87 51 -162 92 -168 92 -5 0 -9 5 -9 10 0 6 -4
10 -9 10 -7 0 -116 62 -231 130 -73 44 -153 90 -155 90 -2 0 -81 45 -175 100
-94 55 -175 100 -181 100 -5 0 -9 5 -9 10 0 6 -6 10 -14 10 -7 0 -19 7 -26 15
-7 8 -16 12 -21 9 -5 -3 -9 0 -9 5 0 6 -4 11 -10 11 -5 0 -39 18 -75 40 -36
22 -70 40 -75 40 -6 0 -10 5 -10 10 0 6 -6 10 -14 10 -7 0 -29 10 -47 23 -19
13 -59 36 -89 52 -30 16 -62 34 -70 41 -8 6 -35 23 -60 36 -25 14 -117 67
-205 118 -88 51 -172 99 -187 107 -15 8 -30 18 -32 22 -5 7 562 342 591 349 7
2 13 8 13 13 0 5 4 9 10 9 5 0 47 23 94 50 47 28 88 50 91 50 3 0 22 12 41 26
19 15 34 22 34 18 0 -5 4 -4 8 2 4 6 66 44 137 85 72 41 138 79 147 84 19 11
287 166 357 206 25 15 96 55 156 90 61 35 112 67 113 71 2 4 8 8 13 8 9 0 95
49 229 129 19 11 42 24 50 28 8 4 59 33 113 65 54 32 102 58 105 58 4 0 18 9
32 20 14 11 28 20 31 20 4 0 7 -619 7 -1375z m277 1304 c6 -4 26 -16 46 -27
72 -40 84 -47 89 -52 3 -3 21 -13 40 -23 19 -9 51 -27 70 -39 68 -42 115 -68
143 -80 15 -7 27 -16 27 -20 0 -4 4 -8 9 -8 4 0 84 -44 177 -98 93 -54 180
-105 194 -113 14 -8 33 -21 44 -29 10 -8 19 -13 20 -11 0 2 19 -7 40 -20 22
-13 63 -37 92 -54 29 -16 104 -59 166 -95 165 -95 199 -115 238 -137 19 -11
73 -43 120 -70 47 -27 96 -56 110 -64 14 -8 27 -16 30 -19 6 -6 84 -49 117
-64 13 -6 23 -14 23 -18 0 -5 5 -8 11 -8 9 0 100 -51 179 -100 30 -18 165 -95
175 -99 6 -2 12 -7 15 -10 3 -3 22 -15 42 -26 29 -15 35 -22 26 -32 -6 -8 -13
-11 -15 -9 -3 3 -10 0 -17 -5 -22 -19 -126 -77 -126 -71 0 4 -4 2 -8 -4 -5 -8
-439 -262 -652 -381 -19 -11 -73 -43 -120 -70 -47 -28 -143 -84 -215 -125 -71
-41 -174 -101 -227 -132 -54 -31 -102 -56 -108 -56 -5 0 -10 -3 -10 -8 0 -4
-21 -18 -47 -31 -27 -14 -59 -32 -73 -42 -14 -9 -46 -28 -71 -41 -79 -44 -94
-53 -99 -59 -3 -3 -24 -15 -47 -26 -54 -28 -87 -47 -93 -53 -3 -3 -18 -12 -35
-22 -16 -9 -84 -47 -150 -85 -66 -37 -124 -70 -130 -72 -5 -2 -12 -7 -15 -11
-9 -11 -103 -60 -107 -56 -4 3 -7 2558 -4 2719 l1 28 58 -32 c31 -18 62 -35
67 -40z m-5178 -109 c7 0 13 -4 13 -10 0 -5 4 -10 10 -10 5 0 39 -18 75 -40
36 -22 70 -40 75 -40 6 0 10 -4 10 -8 0 -5 16 -14 35 -22 19 -8 35 -17 35 -22
0 -4 5 -8 11 -8 6 0 45 -20 86 -45 40 -25 78 -45 83 -45 6 0 10 -4 10 -10 0
-5 5 -10 11 -10 6 0 37 -15 68 -34 52 -31 97 -58 161 -93 14 -8 39 -23 55 -33
17 -11 37 -23 45 -27 8 -4 91 -51 184 -105 93 -54 172 -98 177 -98 5 0 9 -4 9
-10 0 -5 4 -10 10 -10 5 0 39 -18 75 -40 36 -22 67 -40 69 -40 2 0 33 -17 67
-38 35 -22 84 -50 109 -64 25 -14 61 -35 80 -47 19 -11 42 -24 50 -28 8 -4 74
-42 148 -85 73 -43 137 -78 142 -78 6 0 10 -4 10 -10 0 -5 4 -10 9 -10 13 0
131 -71 131 -79 0 -5 -89 -58 -108 -63 -4 -1 -15 -9 -25 -18 -10 -8 -20 -13
-24 -12 -3 2 -9 0 -12 -5 -3 -6 -31 -23 -61 -40 -58 -32 -274 -156 -300 -172
-28 -18 -235 -136 -245 -140 -5 -2 -12 -7 -15 -10 -3 -3 -14 -11 -25 -17 -44
-24 -117 -66 -256 -146 -80 -47 -152 -88 -160 -91 -8 -4 -27 -16 -44 -27 -16
-11 -36 -23 -44 -27 -8 -3 -91 -51 -185 -106 -94 -55 -184 -107 -201 -117
-137 -78 -367 -211 -395 -229 -19 -11 -38 -21 -41 -21 -5 0 -5 2479 -1 2488 1
1 19 -9 39 -23 21 -14 43 -25 50 -25z m2585 -1411 c67 -40 152 -89 188 -109
36 -20 105 -60 153 -88 49 -29 93 -52 98 -52 5 0 9 -4 9 -10 0 -5 4 -10 10
-10 5 0 50 -25 101 -55 50 -30 93 -55 95 -55 3 0 185 -105 224 -130 14 -9 51
-30 162 -93 125 -71 345 -198 358 -207 16 -10 105 -62 160 -93 19 -11 58 -33
85 -49 28 -16 58 -32 68 -35 9 -3 17 -9 17 -13 0 -4 8 -11 18 -14 9 -3 26 -12
37 -19 36 -21 485 -282 509 -294 l23 -13 0 -711 0 -711 -41 -24 c-156 -93
-227 -134 -230 -134 -2 0 -33 -17 -67 -38 -61 -37 -85 -51 -204 -118 -27 -15
-51 -32 -53 -36 -2 -4 -8 -8 -13 -8 -4 0 -46 -23 -93 -50 -47 -28 -89 -50 -95
-50 -6 0 -11 -4 -11 -10 0 -5 -4 -10 -9 -10 -7 0 -311 -173 -396 -225 -17 -10
-28 -7 -80 25 -52 32 -95 57 -180 104 -11 6 -39 24 -62 39 -24 15 -45 27 -48
27 -3 0 -22 11 -43 23 -20 13 -57 35 -82 49 -25 14 -61 34 -80 45 -152 88
-302 175 -328 190 -153 90 -202 118 -230 132 -26 12 -35 25 -44 59 -16 63 -33
77 -268 210 -25 14 -89 52 -143 84 -55 32 -101 58 -104 58 -3 0 -17 8 -31 19
-15 10 -47 29 -72 43 -25 14 -61 34 -80 45 -19 11 -51 29 -70 39 -19 11 -37
21 -40 24 -5 5 -37 24 -75 44 -11 6 -93 54 -183 106 -89 52 -175 101 -190 109
-15 7 -50 29 -79 47 -28 19 -54 34 -57 34 -3 0 -29 14 -58 31 -29 18 -66 40
-83 49 -16 10 -70 41 -118 69 -49 28 -93 51 -98 51 -5 0 -9 5 -9 10 0 6 -4 10
-10 10 -5 0 -39 18 -75 40 -36 22 -69 40 -74 40 -5 0 -14 7 -21 15 -7 8 -21
15 -30 15 -10 0 -20 4 -22 8 -3 8 -98 68 -132 83 -12 5 -34 18 -51 29 -16 10
-41 25 -55 33 -14 7 -43 24 -65 37 -22 12 -60 34 -85 48 -78 42 -79 47 -24 76
27 15 56 31 64 36 54 35 223 130 231 130 5 0 9 5 9 10 0 6 9 10 19 10 11 0 21
4 23 8 2 4 84 54 183 111 99 57 192 113 208 123 15 11 27 16 27 12 0 -4 8 0
18 8 9 8 91 57 182 109 91 51 167 96 170 99 3 3 19 12 35 21 29 15 124 70 425
244 74 43 148 86 163 94 16 9 36 21 45 26 9 6 60 34 112 64 52 30 97 58 98 63
2 4 8 8 12 8 5 0 65 33 134 73 172 98 170 97 183 93 6 -3 67 -37 135 -77z
m4925 -1294 c0 -756 -2 -1375 -4 -1375 -2 0 -63 34 -136 76 -73 42 -152 88
-177 102 -25 14 -74 42 -109 64 -34 21 -65 38 -67 38 -2 0 -33 18 -69 40 -36
22 -70 40 -75 40 -6 0 -10 5 -10 12 0 6 -3 8 -7 5 -3 -4 -13 -1 -22 6 -25 21
-158 97 -170 97 -6 0 -11 5 -11 10 0 6 -4 10 -10 10 -5 0 -55 27 -111 60 -55
33 -105 60 -110 60 -5 0 -9 5 -9 10 0 6 -5 10 -11 10 -6 0 -63 31 -127 69 -64
38 -133 78 -152 89 -111 63 -217 123 -230 131 -8 6 -64 38 -125 73 -60 35
-130 75 -155 90 -25 15 -56 33 -70 41 -73 40 -196 112 -200 118 -3 3 -15 9
-27 13 -13 4 -29 13 -36 19 -6 7 -38 26 -70 42 -95 49 -104 37 123 166 25 15
65 38 88 53 23 14 44 26 46 26 2 0 50 27 105 60 56 33 106 60 111 60 6 0 10 5
10 10 0 6 4 10 9 10 5 0 91 47 190 105 99 58 184 105 190 105 6 0 11 4 11 9 0
5 8 11 18 14 24 8 96 50 100 60 2 4 8 7 13 7 5 0 37 17 71 38 35 21 83 50 108
64 164 92 813 469 828 480 6 6 12 7 12 2 0 -5 4 -4 8 2 5 7 250 154 258 154 1
0 1 -619 1 -1375z m-2352 -195 c6 -4 30 -19 55 -32 43 -25 214 -123 618 -357
106 -61 207 -120 225 -130 55 -31 141 -81 157 -90 32 -20 197 -115 240 -139
25 -13 52 -31 61 -38 8 -8 18 -14 21 -14 4 0 46 -23 95 -51 48 -28 102 -59
118 -69 17 -9 57 -33 90 -53 121 -71 170 -98 188 -104 9 -3 17 -9 17 -14 0 -5
4 -9 10 -9 5 0 74 -38 153 -85 80 -46 160 -92 178 -103 44 -24 46 -36 7 -56
-47 -25 -252 -143 -393 -227 -16 -10 -54 -30 -82 -46 -29 -15 -53 -31 -53 -35
0 -4 -4 -8 -9 -8 -12 0 -245 -133 -249 -142 -2 -5 -7 -6 -12 -3 -4 3 -13 -2
-20 -10 -7 -8 -19 -15 -26 -15 -8 0 -14 -4 -14 -10 0 -5 -4 -10 -9 -10 -6 0
-60 -29 -122 -65 -61 -36 -117 -65 -123 -65 -6 1 -29 12 -51 25 -22 14 -60 36
-85 50 -25 14 -52 30 -60 35 -38 25 -189 110 -195 110 -3 0 -15 9 -27 20 -12
10 -24 17 -28 15 -4 -3 -13 2 -20 10 -7 8 -18 15 -25 15 -8 0 -15 3 -17 8 -3
7 -66 43 -115 66 -13 6 -23 14 -23 19 0 4 -4 7 -9 7 -5 0 -87 46 -182 102 -96
55 -190 110 -209 120 -91 49 -152 86 -166 100 -14 14 -16 88 -15 644 0 346 0
644 0 661 l1 33 48 -27 c26 -14 52 -29 57 -33z m-5072 -174 c89 -51 184 -106
211 -121 28 -15 73 -41 100 -58 28 -16 65 -38 81 -47 17 -10 86 -50 155 -90
69 -40 141 -81 160 -92 19 -11 60 -35 91 -54 31 -19 62 -34 68 -34 6 0 11 -4
11 -10 0 -5 4 -10 9 -10 8 0 56 -27 129 -71 38 -23 98 -57 162 -92 30 -17 57
-33 60 -36 3 -3 19 -13 35 -22 17 -8 75 -42 130 -74 55 -32 114 -66 130 -75
76 -43 239 -138 333 -192 99 -58 102 -61 86 -79 -9 -11 -21 -19 -25 -19 -5 0
-38 -18 -74 -40 -36 -22 -70 -40 -75 -40 -6 0 -10 -4 -10 -8 0 -4 -12 -13 -28
-19 -15 -7 -49 -25 -77 -42 -27 -17 -61 -36 -75 -41 -13 -6 -27 -14 -30 -18
-4 -6 -147 -90 -290 -170 -19 -10 -86 -49 -148 -86 -62 -36 -132 -77 -155 -90
-23 -13 -93 -53 -156 -90 -62 -36 -116 -66 -119 -66 -3 0 -13 -6 -21 -14 -15
-12 -108 -66 -158 -90 -13 -6 -23 -14 -23 -18 0 -5 -4 -8 -10 -8 -5 0 -33 -14
-62 -31 -29 -17 -156 -91 -283 -164 -126 -73 -246 -142 -265 -154 -19 -11 -38
-21 -41 -21 -3 0 -6 558 -6 1240 0 733 4 1240 9 1240 5 0 82 -42 171 -94z"/>
</g>
</svg>
